<svg width="800" height="450" viewBox="0 0 800 450" xmlns="http://www.w3.org/2000/svg" role="img">
<title>A tissue box next to a sun-like symbol, contrasting colds and allergies</title>
<desc>A tissue box next to a sun-like symbol, contrasting colds and allergies</desc>
<rect width="800" height="450" fill="#faf7f0"/>
<circle cx="660" cy="90" r="75" fill="#eef4ff" opacity="0.6"/>
<circle cx="120" cy="370" r="65" fill="#e8d9bf" opacity="0.45"/>

<g transform="translate(290,130)">
  <rect x="0" y="0" width="90" height="60" rx="8" fill="#eef4ff" stroke="#1a4fd6" stroke-width="4"/>
  <path d="M15 0 L45 30 L75 0" fill="none" stroke="#1a4fd6" stroke-width="3"/>
  <rect x="20" y="55" width="50" height="35" fill="#ffffff" stroke="#1a4fd6" stroke-width="3"/>
</g>
<text x="410" y="185" font-family="sans-serif" font-size="26" font-weight="700" fill="#96723f" text-anchor="middle">vs</text>
<g transform="translate(470,130)">
  <path d="M35 0 L45 15 L60 5 L58 25 L75 30 L58 40 L65 60 L45 50 L38 68 L28 50 L8 58 L18 38 L0 28 L20 22 L15 3 Z" fill="#e8d9bf"/>
  <circle cx="37" cy="34" r="16" fill="#96723f"/>
</g>

</svg>