<svg width="800" height="450" viewBox="0 0 800 450" xmlns="http://www.w3.org/2000/svg" role="img">
<title>A medicine cabinet with baby-safe products, above a small child silhouette</title>
<desc>A medicine cabinet with baby-safe products, above a small child silhouette</desc>
<rect width="800" height="450" fill="#faf7f0"/>
<circle cx="660" cy="90" r="75" fill="#eef4ff" opacity="0.6"/>
<circle cx="120" cy="370" r="65" fill="#e8d9bf" opacity="0.45"/>

<g transform="translate(300,130)">
  <rect x="0" y="0" width="200" height="140" rx="10" fill="#0f2a6e"/>
  <rect x="10" y="10" width="180" height="120" rx="6" fill="#eef4ff"/>
  <rect x="30" y="40" width="30" height="70" rx="14" fill="#1a4fd6"/>
  <circle cx="45" cy="40" r="14" fill="#0f2a6e"/>
  <rect x="85" y="55" width="50" height="55" rx="10" fill="#b8935f"/>
  <rect x="95" y="45" width="30" height="20" rx="4" fill="#96723f"/>
  <rect x="150" y="50" width="24" height="60" rx="10" fill="#e8d9bf"/>
</g>
<g transform="translate(365,285)">
  <circle cx="35" cy="0" r="20" fill="#1a4fd6"/>
  <path d="M5 55 Q5 25 35 25 Q65 25 65 55 Z" fill="#1a4fd6"/>
</g>

</svg>