<svg width="800" height="450" viewBox="0 0 800 450" xmlns="http://www.w3.org/2000/svg" role="img">
<title>A disposal bin next to a medicine bottle, representing safe medicine disposal</title>
<desc>A disposal bin next to a medicine bottle, representing safe medicine disposal</desc>
<rect width="800" height="450" fill="#faf7f0"/>
<circle cx="660" cy="90" r="75" fill="#eef4ff" opacity="0.6"/>
<circle cx="120" cy="370" r="65" fill="#e8d9bf" opacity="0.45"/>

<g transform="translate(330,130)">
  <path d="M0 20 L100 20 L90 130 Q90 140 78 140 L22 140 Q10 140 10 130 Z" fill="#96723f"/>
  <rect x="-10" y="8" width="120" height="16" rx="6" fill="#b8935f"/>
  <rect x="35" y="0" width="30" height="14" rx="4" fill="#b8935f"/>
  <line x1="30" y1="45" x2="30" y2="115" stroke="#faf7f0" stroke-width="6" stroke-linecap="round"/>
  <line x1="50" y1="45" x2="50" y2="115" stroke="#faf7f0" stroke-width="6" stroke-linecap="round"/>
  <line x1="70" y1="45" x2="70" y2="115" stroke="#faf7f0" stroke-width="6" stroke-linecap="round"/>
</g>
<g transform="translate(475,155)">
  <rect x="0" y="15" width="35" height="50" rx="8" fill="#1a4fd6"/>
  <rect x="7" y="5" width="21" height="14" rx="4" fill="#0f2a6e"/>
</g>

</svg>